<svg id="Layer_1" data-name="Layer 1" xmlns="http://www.w3.org/2000/svg" viewBox="0 0 500 500"><defs><style>.cls-1{fill:#d82f23;}.cls-2{fill:#444;}.cls-3{fill:#f2c594;}.cls-4{fill:#ffc612;}.cls-5{fill:#b70808;}.cls-6{fill:#2d2d2d;}.cls-7{fill:#e09f69;}.cls-8{fill:#f2a203;}.cls-9{fill:none;stroke:#000;stroke-linecap:round;stroke-linejoin:round;stroke-width:15px;}</style></defs><title>pencil-1</title><path class="cls-1" d="M456.63,111.71,485.8,82.53a21.52,21.52,0,0,0,0-30.44L447.91,14.2a21.52,21.52,0,0,0-30.44,0L388.29,43.37Z"/><rect class="cls-2" x="358.46" y="71.04" width="96.64" height="44.36" transform="translate(185.06 -260.33) rotate(45)"/><polygon class="cls-3" points="7.89 492.11 117.22 450.9 49.1 382.78 7.89 492.11"/><rect class="cls-4" x="19.66" y="214.44" width="435.16" height="96.64" transform="translate(-116.31 244.72) rotate(-45)"/><path class="cls-5" d="M464.59,61.32,435.41,90.49l21.22,21.22L485.8,82.53a21.52,21.52,0,0,0,0-30.44L464.59,30.88A21.52,21.52,0,0,1,464.59,61.32Z"/><rect class="cls-6" x="408.16" y="101.78" width="44.36" height="30" transform="translate(43.46 338.5) rotate(-45)"/><polygon class="cls-7" points="7.89 492.11 117.22 450.9 96.01 429.69 20.72 458.06 7.89 492.11"/><rect class="cls-8" x="43.23" y="271.32" width="435.16" height="30" transform="translate(-126.07 268.28) rotate(-45)"/><polygon class="cls-9" points="7.89 492.11 117.22 450.9 49.1 382.78 7.89 492.11"/><rect class="cls-9" x="358.46" y="71.04" width="96.64" height="44.36" transform="translate(185.06 -260.33) rotate(45)"/><polygon class="cls-2" points="59.46 472.67 27.33 440.54 7.89 492.11 59.46 472.67"/><polygon class="cls-9" points="59.46 472.67 27.33 440.54 7.89 492.11 59.46 472.67"/><rect class="cls-9" x="19.66" y="214.44" width="435.16" height="96.64" transform="translate(-116.31 244.72) rotate(-45)"/><path class="cls-9" d="M456.63,111.71,485.8,82.53a21.52,21.52,0,0,0,0-30.44L447.91,14.2a21.52,21.52,0,0,0-30.44,0L388.29,43.37Z"/></svg>